<svg xmlns="http://www.w3.org/2000/svg" width="134" height="46" fill="none"><path d="M111.347 0h15.858c3.755 0 6.796 3.076 6.796 6.875v32.25c0 3.8-3.041 6.875-6.796 6.875h-15.858c-.775 0-1.427-.534-1.644-1.288a4.877 4.877 0 00-4.686-3.548c-2.203 0-4.096 1.509-4.686 3.548-.217.754-.869 1.288-1.645 1.288l-90.968.002c-3.755 0-6.796-3.076-6.796-6.876V6.877c0-3.8 3.041-6.875 6.796-6.875L98.686 0a1.75 1.75 0 011.042.371c.297.232.508.554.603.917a4.877 4.877 0 004.686 3.548c2.203 0 4.096-1.509 4.686-3.548.217-.754.869-1.288 1.644-1.288z" fill="#3361A7"/></svg>